<?xml version="1.0" encoding="UTF-8" ?>
<svg version="1.1" width="30" height="27" xmlns="http://www.w3.org/2000/svg" shape-rendering="crispEdges">
<rect x="13" y="2" width="1" height="1" fill="#0E0E0E" />
<rect x="14" y="2" width="1" height="1" fill="#0E0E0E" />
<rect x="15" y="2" width="1" height="1" fill="#0E0E0E" />
<rect x="12" y="3" width="1" height="1" fill="#0E0E0E" />
<rect x="13" y="3" width="1" height="1" fill="#201918" />
<rect x="14" y="3" width="1" height="1" fill="#2E2522" />
<rect x="15" y="3" width="1" height="1" fill="#2E2522" />
<rect x="16" y="3" width="1" height="1" fill="#0E0E0E" />
<rect x="17" y="3" width="1" height="1" fill="#0E0E0E" />
<rect x="10" y="4" width="1" height="1" fill="#0E0E0E" />
<rect x="11" y="4" width="1" height="1" fill="#201918" />
<rect x="12" y="4" width="1" height="1" fill="#2E2522" />
<rect x="13" y="4" width="1" height="1" fill="#0E0E0E" />
<rect x="14" y="4" width="1" height="1" fill="#2E2522" />
<rect x="15" y="4" width="1" height="1" fill="#201918" />
<rect x="16" y="4" width="1" height="1" fill="#2E2522" />
<rect x="17" y="4" width="1" height="1" fill="#2E2522" />
<rect x="18" y="4" width="1" height="1" fill="#201918" />
<rect x="9" y="5" width="1" height="1" fill="#0E0E0E" />
<rect x="10" y="5" width="1" height="1" fill="#2E2522" />
<rect x="11" y="5" width="1" height="1" fill="#0E0E0E" />
<rect x="12" y="5" width="1" height="1" fill="#201918" />
<rect x="13" y="5" width="1" height="1" fill="#0E0E0E" />
<rect x="14" y="5" width="1" height="1" fill="#2E2522" />
<rect x="15" y="5" width="1" height="1" fill="#201918" />
<rect x="16" y="5" width="1" height="1" fill="#0E0E0E" />
<rect x="17" y="5" width="1" height="1" fill="#332B26" />
<rect x="18" y="5" width="1" height="1" fill="#2E2522" />
<rect x="19" y="5" width="1" height="1" fill="#2E2522" />
<rect x="8" y="6" width="1" height="1" fill="#0E0E0E" />
<rect x="9" y="6" width="1" height="1" fill="#2E2522" />
<rect x="10" y="6" width="1" height="1" fill="#201918" />
<rect x="11" y="6" width="1" height="1" fill="#0E0E0E" />
<rect x="12" y="6" width="1" height="1" fill="#0E0E0E" />
<rect x="13" y="6" width="1" height="1" fill="#2E2522" />
<rect x="14" y="6" width="1" height="1" fill="#332B26" />
<rect x="15" y="6" width="1" height="1" fill="#332B26" />
<rect x="16" y="6" width="1" height="1" fill="#332B26" />
<rect x="17" y="6" width="1" height="1" fill="#2E2522" />
<rect x="18" y="6" width="1" height="1" fill="#0E0E0E" />
<rect x="19" y="6" width="1" height="1" fill="#0E0E0E" />
<rect x="8" y="7" width="1" height="1" fill="#0E0E0E" />
<rect x="9" y="7" width="1" height="1" fill="#2E2522" />
<rect x="10" y="7" width="1" height="1" fill="#0E0E0E" />
<rect x="11" y="7" width="1" height="1" fill="#2E2522" />
<rect x="12" y="7" width="1" height="1" fill="#AB6E4D" />
<rect x="13" y="7" width="1" height="1" fill="#AB6E4D" />
<rect x="14" y="7" width="1" height="1" fill="#AB6E4D" />
<rect x="15" y="7" width="1" height="1" fill="#AB6E4D" />
<rect x="16" y="7" width="1" height="1" fill="#AB6E4D" />
<rect x="17" y="7" width="1" height="1" fill="#AB6E4D" />
<rect x="18" y="7" width="1" height="1" fill="#AB6E4D" />
<rect x="19" y="7" width="1" height="1" fill="#0E0E0E" />
<rect x="8" y="8" width="1" height="1" fill="#0E0E0E" />
<rect x="9" y="8" width="1" height="1" fill="#201918" />
<rect x="10" y="8" width="1" height="1" fill="#0E0E0E" />
<rect x="11" y="8" width="1" height="1" fill="#AB6E4D" />
<rect x="12" y="8" width="1" height="1" fill="#AB6E4D" />
<rect x="13" y="8" width="1" height="1" fill="#AB6E4D" />
<rect x="14" y="8" width="1" height="1" fill="#AB6E4D" />
<rect x="15" y="8" width="1" height="1" fill="#AB6E4D" />
<rect x="16" y="8" width="1" height="1" fill="#AB6E4D" />
<rect x="17" y="8" width="1" height="1" fill="#AB6E4D" />
<rect x="18" y="8" width="1" height="1" fill="#AB6E4D" />
<rect x="19" y="8" width="1" height="1" fill="#0E0E0E" />
<rect x="8" y="9" width="1" height="1" fill="#0E0E0E" />
<rect x="9" y="9" width="1" height="1" fill="#201918" />
<rect x="10" y="9" width="1" height="1" fill="#AB6E4D" />
<rect x="11" y="9" width="1" height="1" fill="#AB6E4D" />
<rect x="12" y="9" width="1" height="1" fill="#AB6E4D" />
<rect x="13" y="9" width="1" height="1" fill="#AB6E4D" />
<rect x="14" y="9" width="1" height="1" fill="#AB6E4D" />
<rect x="15" y="9" width="1" height="1" fill="#AB6E4D" />
<rect x="16" y="9" width="1" height="1" fill="#AB6E4D" />
<rect x="17" y="9" width="1" height="1" fill="#AB6E4D" />
<rect x="18" y="9" width="1" height="1" fill="#AB6E4D" />
<rect x="19" y="9" width="1" height="1" fill="#0E0E0E" />
<rect x="8" y="10" width="1" height="1" fill="#704338" />
<rect x="9" y="10" width="1" height="1" fill="#AB6E4D" />
<rect x="10" y="10" width="1" height="1" fill="#AB6E4D" />
<rect x="11" y="10" width="1" height="1" fill="#AB6E4D" />
<rect x="12" y="10" width="1" height="1" fill="#AB6E4D" />
<rect x="13" y="10" width="1" height="1" fill="#AB6E4D" />
<rect x="14" y="10" width="1" height="1" fill="#AB6E4D" />
<rect x="15" y="10" width="1" height="1" fill="#AB6E4D" />
<rect x="16" y="10" width="1" height="1" fill="#AB6E4D" />
<rect x="17" y="10" width="1" height="1" fill="#AB6E4D" />
<rect x="18" y="10" width="1" height="1" fill="#AB6E4D" />
<rect x="19" y="10" width="1" height="1" fill="#704338" />
<rect x="9" y="11" width="1" height="1" fill="#704338" />
<rect x="10" y="11" width="1" height="1" fill="#AB6E4D" />
<rect x="11" y="11" width="1" height="1" fill="#AB6E4D" />
<rect x="12" y="11" width="1" height="1" fill="#AB6E4D" />
<rect x="13" y="11" width="1" height="1" fill="#36292A" />
<rect x="14" y="11" width="1" height="1" fill="#AB6E4D" />
<rect x="15" y="11" width="1" height="1" fill="#AB6E4D" />
<rect x="16" y="11" width="1" height="1" fill="#AB6E4D" />
<rect x="17" y="11" width="1" height="1" fill="#36292A" />
<rect x="18" y="11" width="1" height="1" fill="#965C47" />
<rect x="19" y="11" width="1" height="1" fill="#704338" />
<rect x="9" y="12" width="1" height="1" fill="#704338" />
<rect x="10" y="12" width="1" height="1" fill="#AB6E4D" />
<rect x="11" y="12" width="1" height="1" fill="#AB6E4D" />
<rect x="12" y="12" width="1" height="1" fill="#AB6E4D" />
<rect x="13" y="12" width="1" height="1" fill="#36292A" />
<rect x="14" y="12" width="1" height="1" fill="#AB6E4D" />
<rect x="15" y="12" width="1" height="1" fill="#AB6E4D" />
<rect x="16" y="12" width="1" height="1" fill="#AB6E4D" />
<rect x="17" y="12" width="1" height="1" fill="#36292A" />
<rect x="18" y="12" width="1" height="1" fill="#704338" />
<rect x="10" y="13" width="1" height="1" fill="#704338" />
<rect x="11" y="13" width="1" height="1" fill="#AB6E4D" />
<rect x="12" y="13" width="1" height="1" fill="#AB6E4D" />
<rect x="13" y="13" width="1" height="1" fill="#AB6E4D" />
<rect x="14" y="13" width="1" height="1" fill="#AB6E4D" />
<rect x="15" y="13" width="1" height="1" fill="#AB6E4D" />
<rect x="16" y="13" width="1" height="1" fill="#AB6E4D" />
<rect x="17" y="13" width="1" height="1" fill="#AB6E4D" />
<rect x="18" y="13" width="1" height="1" fill="#704338" />
<rect x="11" y="14" width="1" height="1" fill="#704338" />
<rect x="12" y="14" width="1" height="1" fill="#704338" />
<rect x="13" y="14" width="1" height="1" fill="#965C47" />
<rect x="14" y="14" width="1" height="1" fill="#965C47" />
<rect x="15" y="14" width="1" height="1" fill="#965C47" />
<rect x="16" y="14" width="1" height="1" fill="#704338" />
<rect x="17" y="14" width="1" height="1" fill="#704338" />
<rect x="10" y="15" width="1" height="1" fill="#242222" />
<rect x="11" y="15" width="1" height="1" fill="#2B2727" />
<rect x="12" y="15" width="1" height="1" fill="#2B2727" />
<rect x="13" y="15" width="1" height="1" fill="#2B2727" />
<rect x="14" y="15" width="1" height="1" fill="#C7B8A3" />
<rect x="15" y="15" width="1" height="1" fill="#8F3E35" />
<rect x="16" y="15" width="1" height="1" fill="#8F3E35" />
<rect x="17" y="15" width="1" height="1" fill="#242222" />
<rect x="9" y="16" width="1" height="1" fill="#242222" />
<rect x="10" y="16" width="1" height="1" fill="#3B3432" />
<rect x="11" y="16" width="1" height="1" fill="#3B3432" />
<rect x="12" y="16" width="1" height="1" fill="#3B3432" />
<rect x="13" y="16" width="1" height="1" fill="#3B3432" />
<rect x="14" y="16" width="1" height="1" fill="#2B2727" />
<rect x="15" y="16" width="1" height="1" fill="#2B2727" />
<rect x="16" y="16" width="1" height="1" fill="#8F3E35" />
<rect x="17" y="16" width="1" height="1" fill="#242222" />
<rect x="18" y="16" width="1" height="1" fill="#59352D" />
<rect x="9" y="17" width="1" height="1" fill="#242222" />
<rect x="10" y="17" width="1" height="1" fill="#3B3432" />
<rect x="11" y="17" width="1" height="1" fill="#3B3432" />
<rect x="12" y="17" width="1" height="1" fill="#242222" />
<rect x="13" y="17" width="1" height="1" fill="#3B3432" />
<rect x="14" y="17" width="1" height="1" fill="#3B3432" />
<rect x="15" y="17" width="1" height="1" fill="#2B2727" />
<rect x="16" y="17" width="1" height="1" fill="#2B2727" />
<rect x="17" y="17" width="1" height="1" fill="#242222" />
<rect x="18" y="17" width="1" height="1" fill="#965C47" />
<rect x="19" y="17" width="1" height="1" fill="#59352D" />
<rect x="9" y="18" width="1" height="1" fill="#242222" />
<rect x="10" y="18" width="1" height="1" fill="#3B3432" />
<rect x="11" y="18" width="1" height="1" fill="#AB6E4D" />
<rect x="12" y="18" width="1" height="1" fill="#AB6E4D" />
<rect x="13" y="18" width="1" height="1" fill="#704338" />
<rect x="14" y="18" width="1" height="1" fill="#3B3432" />
<rect x="15" y="18" width="1" height="1" fill="#C7804E" />
<rect x="16" y="18" width="1" height="1" fill="#2B2727" />
<rect x="17" y="18" width="1" height="1" fill="#242222" />
<rect x="18" y="18" width="1" height="1" fill="#965C47" />
<rect x="19" y="18" width="1" height="1" fill="#59352D" />
<rect x="10" y="19" width="1" height="1" fill="#242222" />
<rect x="11" y="19" width="1" height="1" fill="#AB6E4D" />
<rect x="12" y="19" width="1" height="1" fill="#AB6E4D" />
<rect x="13" y="19" width="1" height="1" fill="#704338" />
<rect x="14" y="19" width="1" height="1" fill="#242222" />
<rect x="15" y="19" width="1" height="1" fill="#242222" />
<rect x="16" y="19" width="1" height="1" fill="#242222" />
<rect x="17" y="19" width="1" height="1" fill="#242222" />
<rect x="18" y="19" width="1" height="1" fill="#59352D" />
<rect x="11" y="20" width="1" height="1" fill="#704338" />
<rect x="12" y="20" width="1" height="1" fill="#704338" />
<rect x="13" y="20" width="1" height="1" fill="#4C464B" />
<rect x="14" y="20" width="1" height="1" fill="#4C464B" />
<rect x="15" y="20" width="1" height="1" fill="#4C464B" />
<rect x="16" y="20" width="1" height="1" fill="#4C464B" />
<rect x="17" y="20" width="1" height="1" fill="#332E32" />
<rect x="11" y="21" width="1" height="1" fill="#332E32" />
<rect x="12" y="21" width="1" height="1" fill="#4C464B" />
<rect x="13" y="21" width="1" height="1" fill="#4C464B" />
<rect x="14" y="21" width="1" height="1" fill="#332E32" />
<rect x="15" y="21" width="1" height="1" fill="#332E32" />
<rect x="16" y="21" width="1" height="1" fill="#413B40" />
<rect x="17" y="21" width="1" height="1" fill="#332E32" />
<rect x="11" y="22" width="1" height="1" fill="#2E211A" />
<rect x="12" y="22" width="1" height="1" fill="#3B2B20" />
<rect x="13" y="22" width="1" height="1" fill="#473527" />
<rect x="14" y="22" width="1" height="1" fill="#2E211A" />
<rect x="15" y="22" width="1" height="1" fill="#2E211A" />
<rect x="16" y="22" width="1" height="1" fill="#38291F" />
<rect x="17" y="22" width="1" height="1" fill="#2E211A" />
</svg>