<?xml version="1.0" encoding="UTF-8" ?>
<svg version="1.1" width="27" height="28" xmlns="http://www.w3.org/2000/svg" shape-rendering="crispEdges">
<rect x="12" y="3" width="1" height="1" fill="#171717" />
<rect x="13" y="3" width="1" height="1" fill="#171717" />
<rect x="14" y="3" width="1" height="1" fill="#171717" />
<rect x="11" y="4" width="1" height="1" fill="#171313" />
<rect x="12" y="4" width="1" height="1" fill="#171313" />
<rect x="13" y="4" width="1" height="1" fill="#2E2929" />
<rect x="14" y="4" width="1" height="1" fill="#2E2929" />
<rect x="15" y="4" width="1" height="1" fill="#171717" />
<rect x="16" y="4" width="1" height="1" fill="#171717" />
<rect x="9" y="5" width="1" height="1" fill="#171717" />
<rect x="10" y="5" width="1" height="1" fill="#171313" />
<rect x="11" y="5" width="1" height="1" fill="#2E2929" />
<rect x="12" y="5" width="1" height="1" fill="#252121" />
<rect x="13" y="5" width="1" height="1" fill="#2E2929" />
<rect x="14" y="5" width="1" height="1" fill="#171313" />
<rect x="15" y="5" width="1" height="1" fill="#171313" />
<rect x="16" y="5" width="1" height="1" fill="#2E2929" />
<rect x="17" y="5" width="1" height="1" fill="#171717" />
<rect x="8" y="6" width="1" height="1" fill="#171717" />
<rect x="9" y="6" width="1" height="1" fill="#2E2929" />
<rect x="10" y="6" width="1" height="1" fill="#252121" />
<rect x="11" y="6" width="1" height="1" fill="#171313" />
<rect x="12" y="6" width="1" height="1" fill="#2E2929" />
<rect x="13" y="6" width="1" height="1" fill="#2E2929" />
<rect x="14" y="6" width="1" height="1" fill="#2E2929" />
<rect x="15" y="6" width="1" height="1" fill="#252121" />
<rect x="16" y="6" width="1" height="1" fill="#2E2929" />
<rect x="17" y="6" width="1" height="1" fill="#171313" />
<rect x="18" y="6" width="1" height="1" fill="#171717" />
<rect x="7" y="7" width="1" height="1" fill="#171717" />
<rect x="8" y="7" width="1" height="1" fill="#2E2929" />
<rect x="9" y="7" width="1" height="1" fill="#171313" />
<rect x="10" y="7" width="1" height="1" fill="#2E2929" />
<rect x="11" y="7" width="1" height="1" fill="#AB6E4D" />
<rect x="12" y="7" width="1" height="1" fill="#AB6E4D" />
<rect x="13" y="7" width="1" height="1" fill="#AB6E4D" />
<rect x="14" y="7" width="1" height="1" fill="#AB6E4D" />
<rect x="15" y="7" width="1" height="1" fill="#AB6E4D" />
<rect x="16" y="7" width="1" height="1" fill="#AB6E4D" />
<rect x="17" y="7" width="1" height="1" fill="#252121" />
<rect x="18" y="7" width="1" height="1" fill="#171717" />
<rect x="7" y="8" width="1" height="1" fill="#171717" />
<rect x="8" y="8" width="1" height="1" fill="#2E2929" />
<rect x="9" y="8" width="1" height="1" fill="#252121" />
<rect x="10" y="8" width="1" height="1" fill="#AB6E4D" />
<rect x="11" y="8" width="1" height="1" fill="#AB6E4D" />
<rect x="12" y="8" width="1" height="1" fill="#AB6E4D" />
<rect x="13" y="8" width="1" height="1" fill="#AB6E4D" />
<rect x="14" y="8" width="1" height="1" fill="#AB6E4D" />
<rect x="15" y="8" width="1" height="1" fill="#AB6E4D" />
<rect x="16" y="8" width="1" height="1" fill="#AB6E4D" />
<rect x="17" y="8" width="1" height="1" fill="#AB6E4D" />
<rect x="18" y="8" width="1" height="1" fill="#171717" />
<rect x="7" y="9" width="1" height="1" fill="#171717" />
<rect x="8" y="9" width="1" height="1" fill="#252121" />
<rect x="9" y="9" width="1" height="1" fill="#AB6E4D" />
<rect x="10" y="9" width="1" height="1" fill="#AB6E4D" />
<rect x="11" y="9" width="1" height="1" fill="#AB6E4D" />
<rect x="12" y="9" width="1" height="1" fill="#AB6E4D" />
<rect x="13" y="9" width="1" height="1" fill="#AB6E4D" />
<rect x="14" y="9" width="1" height="1" fill="#AB6E4D" />
<rect x="15" y="9" width="1" height="1" fill="#AB6E4D" />
<rect x="16" y="9" width="1" height="1" fill="#AB6E4D" />
<rect x="17" y="9" width="1" height="1" fill="#AB6E4D" />
<rect x="18" y="9" width="1" height="1" fill="#171717" />
<rect x="7" y="10" width="1" height="1" fill="#171717" />
<rect x="8" y="10" width="1" height="1" fill="#AB6E4D" />
<rect x="9" y="10" width="1" height="1" fill="#AB6E4D" />
<rect x="10" y="10" width="1" height="1" fill="#AB6E4D" />
<rect x="11" y="10" width="1" height="1" fill="#131212" />
<rect x="12" y="10" width="1" height="1" fill="#131212" />
<rect x="13" y="10" width="1" height="1" fill="#131212" />
<rect x="14" y="10" width="1" height="1" fill="#AB6E4D" />
<rect x="15" y="10" width="1" height="1" fill="#131212" />
<rect x="16" y="10" width="1" height="1" fill="#131212" />
<rect x="17" y="10" width="1" height="1" fill="#131212" />
<rect x="18" y="10" width="1" height="1" fill="#171717" />
<rect x="7" y="11" width="1" height="1" fill="#704338" />
<rect x="8" y="11" width="1" height="1" fill="#AB6E4D" />
<rect x="9" y="11" width="1" height="1" fill="#AB6E4D" />
<rect x="10" y="11" width="1" height="1" fill="#131212" />
<rect x="11" y="11" width="1" height="1" fill="#878A7C" />
<rect x="12" y="11" width="1" height="1" fill="#5A6C6C" />
<rect x="13" y="11" width="1" height="1" fill="#878A7C" />
<rect x="14" y="11" width="1" height="1" fill="#131212" />
<rect x="15" y="11" width="1" height="1" fill="#878A7C" />
<rect x="16" y="11" width="1" height="1" fill="#5A6C6C" />
<rect x="17" y="11" width="1" height="1" fill="#878A7C" />
<rect x="18" y="11" width="1" height="1" fill="#171717" />
<rect x="8" y="12" width="1" height="1" fill="#131212" />
<rect x="9" y="12" width="1" height="1" fill="#131212" />
<rect x="10" y="12" width="1" height="1" fill="#131212" />
<rect x="11" y="12" width="1" height="1" fill="#878A7C" />
<rect x="12" y="12" width="1" height="1" fill="#597272" />
<rect x="13" y="12" width="1" height="1" fill="#878A7C" />
<rect x="14" y="12" width="1" height="1" fill="#AB6E4D" />
<rect x="15" y="12" width="1" height="1" fill="#878A7C" />
<rect x="16" y="12" width="1" height="1" fill="#5A6C6C" />
<rect x="17" y="12" width="1" height="1" fill="#7D8179" />
<rect x="18" y="12" width="1" height="1" fill="#704338" />
<rect x="8" y="13" width="1" height="1" fill="#704338" />
<rect x="9" y="13" width="1" height="1" fill="#AB6E4D" />
<rect x="10" y="13" width="1" height="1" fill="#AB6E4D" />
<rect x="11" y="13" width="1" height="1" fill="#AB6E4D" />
<rect x="12" y="13" width="1" height="1" fill="#AB6E4D" />
<rect x="13" y="13" width="1" height="1" fill="#000000" />
<rect x="14" y="13" width="1" height="1" fill="#000000" />
<rect x="15" y="13" width="1" height="1" fill="#000000" />
<rect x="16" y="13" width="1" height="1" fill="#AB6E4D" />
<rect x="17" y="13" width="1" height="1" fill="#704338" />
<rect x="9" y="14" width="1" height="1" fill="#704338" />
<rect x="10" y="14" width="1" height="1" fill="#AB6E4D" />
<rect x="11" y="14" width="1" height="1" fill="#AB6E4D" />
<rect x="12" y="14" width="1" height="1" fill="#000000" />
<rect x="13" y="14" width="1" height="1" fill="#000000" />
<rect x="14" y="14" width="1" height="1" fill="#704338" />
<rect x="15" y="14" width="1" height="1" fill="#000000" />
<rect x="16" y="14" width="1" height="1" fill="#000000" />
<rect x="17" y="14" width="1" height="1" fill="#704338" />
<rect x="10" y="15" width="1" height="1" fill="#704338" />
<rect x="11" y="15" width="1" height="1" fill="#704338" />
<rect x="12" y="15" width="1" height="1" fill="#965C47" />
<rect x="13" y="15" width="1" height="1" fill="#965C47" />
<rect x="14" y="15" width="1" height="1" fill="#965C47" />
<rect x="15" y="15" width="1" height="1" fill="#704338" />
<rect x="16" y="15" width="1" height="1" fill="#704338" />
<rect x="9" y="16" width="1" height="1" fill="#323942" />
<rect x="10" y="16" width="1" height="1" fill="#4B6275" />
<rect x="11" y="16" width="1" height="1" fill="#4B6275" />
<rect x="12" y="16" width="1" height="1" fill="#4B6275" />
<rect x="13" y="16" width="1" height="1" fill="#4B6275" />
<rect x="14" y="16" width="1" height="1" fill="#4B6275" />
<rect x="15" y="16" width="1" height="1" fill="#435361" />
<rect x="16" y="16" width="1" height="1" fill="#323942" />
<rect x="8" y="17" width="1" height="1" fill="#323942" />
<rect x="9" y="17" width="1" height="1" fill="#4B6275" />
<rect x="10" y="17" width="1" height="1" fill="#4B6275" />
<rect x="11" y="17" width="1" height="1" fill="#4B6275" />
<rect x="12" y="17" width="1" height="1" fill="#4B6275" />
<rect x="13" y="17" width="1" height="1" fill="#4B6275" />
<rect x="14" y="17" width="1" height="1" fill="#4B6275" />
<rect x="15" y="17" width="1" height="1" fill="#4B6275" />
<rect x="16" y="17" width="1" height="1" fill="#323942" />
<rect x="17" y="17" width="1" height="1" fill="#59352D" />
<rect x="8" y="18" width="1" height="1" fill="#323942" />
<rect x="9" y="18" width="1" height="1" fill="#4B6275" />
<rect x="10" y="18" width="1" height="1" fill="#4B6275" />
<rect x="11" y="18" width="1" height="1" fill="#38434E" />
<rect x="12" y="18" width="1" height="1" fill="#4B6275" />
<rect x="13" y="18" width="1" height="1" fill="#4B6275" />
<rect x="14" y="18" width="1" height="1" fill="#4B6275" />
<rect x="15" y="18" width="1" height="1" fill="#4B6275" />
<rect x="16" y="18" width="1" height="1" fill="#323942" />
<rect x="17" y="18" width="1" height="1" fill="#965C47" />
<rect x="18" y="18" width="1" height="1" fill="#59352D" />
<rect x="8" y="19" width="1" height="1" fill="#323942" />
<rect x="9" y="19" width="1" height="1" fill="#4B6275" />
<rect x="10" y="19" width="1" height="1" fill="#AB6E4D" />
<rect x="11" y="19" width="1" height="1" fill="#AB6E4D" />
<rect x="12" y="19" width="1" height="1" fill="#704338" />
<rect x="13" y="19" width="1" height="1" fill="#4B6275" />
<rect x="14" y="19" width="1" height="1" fill="#4B6275" />
<rect x="15" y="19" width="1" height="1" fill="#4B6275" />
<rect x="16" y="19" width="1" height="1" fill="#323942" />
<rect x="17" y="19" width="1" height="1" fill="#965C47" />
<rect x="18" y="19" width="1" height="1" fill="#59352D" />
<rect x="9" y="20" width="1" height="1" fill="#323942" />
<rect x="10" y="20" width="1" height="1" fill="#AB6E4D" />
<rect x="11" y="20" width="1" height="1" fill="#AB6E4D" />
<rect x="12" y="20" width="1" height="1" fill="#704338" />
<rect x="13" y="20" width="1" height="1" fill="#435361" />
<rect x="14" y="20" width="1" height="1" fill="#435361" />
<rect x="15" y="20" width="1" height="1" fill="#435361" />
<rect x="16" y="20" width="1" height="1" fill="#323942" />
<rect x="17" y="20" width="1" height="1" fill="#59352D" />
<rect x="10" y="21" width="1" height="1" fill="#704338" />
<rect x="11" y="21" width="1" height="1" fill="#704338" />
<rect x="12" y="21" width="1" height="1" fill="#4C464B" />
<rect x="13" y="21" width="1" height="1" fill="#4C464B" />
<rect x="14" y="21" width="1" height="1" fill="#4C464B" />
<rect x="15" y="21" width="1" height="1" fill="#4C464B" />
<rect x="16" y="21" width="1" height="1" fill="#332E32" />
<rect x="10" y="22" width="1" height="1" fill="#332E32" />
<rect x="11" y="22" width="1" height="1" fill="#4C464B" />
<rect x="12" y="22" width="1" height="1" fill="#4C464B" />
<rect x="13" y="22" width="1" height="1" fill="#332E32" />
<rect x="14" y="22" width="1" height="1" fill="#332E32" />
<rect x="15" y="22" width="1" height="1" fill="#413B40" />
<rect x="16" y="22" width="1" height="1" fill="#332E32" />
<rect x="10" y="23" width="1" height="1" fill="#1C1C1F" />
<rect x="11" y="23" width="1" height="1" fill="#28282B" />
<rect x="12" y="23" width="1" height="1" fill="#1C1C1F" />
<rect x="13" y="23" width="1" height="1" fill="#1C1C1F" />
<rect x="14" y="23" width="1" height="1" fill="#393940" />
<rect x="15" y="23" width="1" height="1" fill="#2C2C30" />
<rect x="16" y="23" width="1" height="1" fill="#1C1C1F" />
</svg>