<?xml version="1.0" encoding="UTF-8" ?>
<svg version="1.1" width="29" height="28" xmlns="http://www.w3.org/2000/svg" shape-rendering="crispEdges">
<rect x="13" y="4" width="1" height="1" fill="#8A5A55" />
<rect x="14" y="4" width="1" height="1" fill="#8A5A55" />
<rect x="15" y="4" width="1" height="1" fill="#8A5A55" />
<rect x="16" y="4" width="1" height="1" fill="#8A5A55" />
<rect x="17" y="4" width="1" height="1" fill="#8A5A55" />
<rect x="11" y="5" width="1" height="1" fill="#8A5A55" />
<rect x="12" y="5" width="1" height="1" fill="#8A5A55" />
<rect x="13" y="5" width="1" height="1" fill="#B57869" />
<rect x="14" y="5" width="1" height="1" fill="#B57869" />
<rect x="15" y="5" width="1" height="1" fill="#B57869" />
<rect x="16" y="5" width="1" height="1" fill="#B57869" />
<rect x="17" y="5" width="1" height="1" fill="#B57869" />
<rect x="18" y="5" width="1" height="1" fill="#8A5A55" />
<rect x="10" y="6" width="1" height="1" fill="#8A5A55" />
<rect x="11" y="6" width="1" height="1" fill="#B57869" />
<rect x="12" y="6" width="1" height="1" fill="#B57869" />
<rect x="13" y="6" width="1" height="1" fill="#B57869" />
<rect x="14" y="6" width="1" height="1" fill="#9E675D" />
<rect x="15" y="6" width="1" height="1" fill="#9E675D" />
<rect x="16" y="6" width="1" height="1" fill="#B57869" />
<rect x="17" y="6" width="1" height="1" fill="#B57869" />
<rect x="18" y="6" width="1" height="1" fill="#8A5A55" />
<rect x="19" y="6" width="1" height="1" fill="#8A5A55" />
<rect x="9" y="7" width="1" height="1" fill="#8A5A55" />
<rect x="10" y="7" width="1" height="1" fill="#B57869" />
<rect x="11" y="7" width="1" height="1" fill="#B57869" />
<rect x="12" y="7" width="1" height="1" fill="#9E675D" />
<rect x="13" y="7" width="1" height="1" fill="#9E675D" />
<rect x="14" y="7" width="1" height="1" fill="#8A5A55" />
<rect x="15" y="7" width="1" height="1" fill="#8A5A55" />
<rect x="16" y="7" width="1" height="1" fill="#8A5A55" />
<rect x="17" y="7" width="1" height="1" fill="#8A5A55" />
<rect x="18" y="7" width="1" height="1" fill="#8A5A55" />
<rect x="19" y="7" width="1" height="1" fill="#B57869" />
<rect x="20" y="7" width="1" height="1" fill="#8A5A55" />
<rect x="9" y="8" width="1" height="1" fill="#754D4B" />
<rect x="10" y="8" width="1" height="1" fill="#9E675D" />
<rect x="11" y="8" width="1" height="1" fill="#9E675D" />
<rect x="12" y="8" width="1" height="1" fill="#8A5A55" />
<rect x="13" y="8" width="1" height="1" fill="#8A5A55" />
<rect x="14" y="8" width="1" height="1" fill="#8A5A55" />
<rect x="15" y="8" width="1" height="1" fill="#B57869" />
<rect x="16" y="8" width="1" height="1" fill="#8A5A55" />
<rect x="17" y="8" width="1" height="1" fill="#8A5A55" />
<rect x="18" y="8" width="1" height="1" fill="#8A5A55" />
<rect x="19" y="8" width="1" height="1" fill="#8A5A55" />
<rect x="20" y="8" width="1" height="1" fill="#754D4B" />
<rect x="9" y="9" width="1" height="1" fill="#754D4B" />
<rect x="10" y="9" width="1" height="1" fill="#8A5A55" />
<rect x="11" y="9" width="1" height="1" fill="#8A5A55" />
<rect x="12" y="9" width="1" height="1" fill="#8A5A55" />
<rect x="13" y="9" width="1" height="1" fill="#9E675D" />
<rect x="14" y="9" width="1" height="1" fill="#8A5A55" />
<rect x="15" y="9" width="1" height="1" fill="#8A5A55" />
<rect x="16" y="9" width="1" height="1" fill="#8A5A55" />
<rect x="17" y="9" width="1" height="1" fill="#EB9C7A" />
<rect x="18" y="9" width="1" height="1" fill="#EB9C7A" />
<rect x="19" y="9" width="1" height="1" fill="#9E675D" />
<rect x="20" y="9" width="1" height="1" fill="#754D4B" />
<rect x="9" y="10" width="1" height="1" fill="#754D4B" />
<rect x="10" y="10" width="1" height="1" fill="#8A5A55" />
<rect x="11" y="10" width="1" height="1" fill="#9E675D" />
<rect x="12" y="10" width="1" height="1" fill="#9E675D" />
<rect x="13" y="10" width="1" height="1" fill="#8A5A55" />
<rect x="14" y="10" width="1" height="1" fill="#EB9C7A" />
<rect x="15" y="10" width="1" height="1" fill="#EB9C7A" />
<rect x="16" y="10" width="1" height="1" fill="#EB9C7A" />
<rect x="17" y="10" width="1" height="1" fill="#EB9C7A" />
<rect x="18" y="10" width="1" height="1" fill="#EB9C7A" />
<rect x="19" y="10" width="1" height="1" fill="#B57869" />
<rect x="20" y="10" width="1" height="1" fill="#8A5A55" />
<rect x="21" y="10" width="1" height="1" fill="#754D4B" />
<rect x="8" y="11" width="1" height="1" fill="#754D4B" />
<rect x="9" y="11" width="1" height="1" fill="#8A5A55" />
<rect x="10" y="11" width="1" height="1" fill="#B57869" />
<rect x="11" y="11" width="1" height="1" fill="#B57869" />
<rect x="12" y="11" width="1" height="1" fill="#8A5A55" />
<rect x="13" y="11" width="1" height="1" fill="#754D4B" />
<rect x="14" y="11" width="1" height="1" fill="#754D4B" />
<rect x="15" y="11" width="1" height="1" fill="#EB9C7A" />
<rect x="16" y="11" width="1" height="1" fill="#EB9C7A" />
<rect x="17" y="11" width="1" height="1" fill="#EB9C7A" />
<rect x="18" y="11" width="1" height="1" fill="#754D4B" />
<rect x="19" y="11" width="1" height="1" fill="#754D4B" />
<rect x="20" y="11" width="1" height="1" fill="#9E675D" />
<rect x="21" y="11" width="1" height="1" fill="#754D4B" />
<rect x="8" y="12" width="1" height="1" fill="#754D4B" />
<rect x="9" y="12" width="1" height="1" fill="#754D4B" />
<rect x="10" y="12" width="1" height="1" fill="#754D4B" />
<rect x="11" y="12" width="1" height="1" fill="#754D4B" />
<rect x="12" y="12" width="1" height="1" fill="#754D4B" />
<rect x="13" y="12" width="1" height="1" fill="#EB9C7A" />
<rect x="14" y="12" width="1" height="1" fill="#6E5048" />
<rect x="15" y="12" width="1" height="1" fill="#EB9C7A" />
<rect x="16" y="12" width="1" height="1" fill="#EB9C7A" />
<rect x="17" y="12" width="1" height="1" fill="#EB9C7A" />
<rect x="18" y="12" width="1" height="1" fill="#6E5048" />
<rect x="19" y="12" width="1" height="1" fill="#D48B70" />
<rect x="20" y="12" width="1" height="1" fill="#754D4B" />
<rect x="21" y="12" width="1" height="1" fill="#754D4B" />
<rect x="9" y="13" width="1" height="1" fill="#573C3B" />
<rect x="10" y="13" width="1" height="1" fill="#82544A" />
<rect x="11" y="13" width="1" height="1" fill="#EB9C7A" />
<rect x="12" y="13" width="1" height="1" fill="#EB9C7A" />
<rect x="13" y="13" width="1" height="1" fill="#EB9C7A" />
<rect x="14" y="13" width="1" height="1" fill="#6E5048" />
<rect x="15" y="13" width="1" height="1" fill="#EB9C7A" />
<rect x="16" y="13" width="1" height="1" fill="#EB9C7A" />
<rect x="17" y="13" width="1" height="1" fill="#EB9C7A" />
<rect x="18" y="13" width="1" height="1" fill="#6E5048" />
<rect x="19" y="13" width="1" height="1" fill="#82544A" />
<rect x="20" y="13" width="1" height="1" fill="#573C3B" />
<rect x="9" y="14" width="1" height="1" fill="#573C3B" />
<rect x="10" y="14" width="1" height="1" fill="#8A5A55" />
<rect x="11" y="14" width="1" height="1" fill="#FFFFFF" />
<rect x="12" y="14" width="1" height="1" fill="#EB9C7A" />
<rect x="13" y="14" width="1" height="1" fill="#EB9C7A" />
<rect x="14" y="14" width="1" height="1" fill="#EB9C7A" />
<rect x="15" y="14" width="1" height="1" fill="#EB9C7A" />
<rect x="16" y="14" width="1" height="1" fill="#EB9C7A" />
<rect x="17" y="14" width="1" height="1" fill="#EB9C7A" />
<rect x="18" y="14" width="1" height="1" fill="#EB9C7A" />
<rect x="19" y="14" width="1" height="1" fill="#FFFFFF" />
<rect x="20" y="14" width="1" height="1" fill="#573C3B" />
<rect x="9" y="15" width="1" height="1" fill="#573C3B" />
<rect x="10" y="15" width="1" height="1" fill="#8A5A55" />
<rect x="11" y="15" width="1" height="1" fill="#8A5A55" />
<rect x="12" y="15" width="1" height="1" fill="#82544A" />
<rect x="13" y="15" width="1" height="1" fill="#82544A" />
<rect x="14" y="15" width="1" height="1" fill="#D48B70" />
<rect x="15" y="15" width="1" height="1" fill="#D48B70" />
<rect x="16" y="15" width="1" height="1" fill="#D48B70" />
<rect x="17" y="15" width="1" height="1" fill="#82544A" />
<rect x="18" y="15" width="1" height="1" fill="#82544A" />
<rect x="19" y="15" width="1" height="1" fill="#8A5A55" />
<rect x="20" y="15" width="1" height="1" fill="#573C3B" />
<rect x="9" y="16" width="1" height="1" fill="#573C3B" />
<rect x="10" y="16" width="1" height="1" fill="#423E57" />
<rect x="11" y="16" width="1" height="1" fill="#745C96" />
<rect x="12" y="16" width="1" height="1" fill="#745C96" />
<rect x="13" y="16" width="1" height="1" fill="#745C96" />
<rect x="14" y="16" width="1" height="1" fill="#745C96" />
<rect x="15" y="16" width="1" height="1" fill="#745C96" />
<rect x="16" y="16" width="1" height="1" fill="#5C5178" />
<rect x="17" y="16" width="1" height="1" fill="#423E57" />
<rect x="18" y="16" width="1" height="1" fill="#423E57" />
<rect x="19" y="16" width="1" height="1" fill="#8A5A55" />
<rect x="20" y="16" width="1" height="1" fill="#573C3B" />
<rect x="9" y="17" width="1" height="1" fill="#423E57" />
<rect x="10" y="17" width="1" height="1" fill="#745C96" />
<rect x="11" y="17" width="1" height="1" fill="#745C96" />
<rect x="12" y="17" width="1" height="1" fill="#745C96" />
<rect x="13" y="17" width="1" height="1" fill="#745C96" />
<rect x="14" y="17" width="1" height="1" fill="#745C96" />
<rect x="15" y="17" width="1" height="1" fill="#C2AD99" />
<rect x="16" y="17" width="1" height="1" fill="#C2AD99" />
<rect x="17" y="17" width="1" height="1" fill="#423E57" />
<rect x="18" y="17" width="1" height="1" fill="#423E57" />
<rect x="19" y="17" width="1" height="1" fill="#63423E" />
<rect x="20" y="17" width="1" height="1" fill="#573C3B" />
<rect x="9" y="18" width="1" height="1" fill="#423E57" />
<rect x="10" y="18" width="1" height="1" fill="#745C96" />
<rect x="11" y="18" width="1" height="1" fill="#745C96" />
<rect x="12" y="18" width="1" height="1" fill="#4D4665" />
<rect x="13" y="18" width="1" height="1" fill="#745C96" />
<rect x="14" y="18" width="1" height="1" fill="#C2AD99" />
<rect x="15" y="18" width="1" height="1" fill="#C78548" />
<rect x="16" y="18" width="1" height="1" fill="#C78548" />
<rect x="17" y="18" width="1" height="1" fill="#918074" />
<rect x="18" y="18" width="1" height="1" fill="#423E57" />
<rect x="19" y="18" width="1" height="1" fill="#D48B70" />
<rect x="20" y="18" width="1" height="1" fill="#63423E" />
<rect x="9" y="19" width="1" height="1" fill="#423E57" />
<rect x="10" y="19" width="1" height="1" fill="#745C96" />
<rect x="11" y="19" width="1" height="1" fill="#745C96" />
<rect x="12" y="19" width="1" height="1" fill="#EB9C7A" />
<rect x="13" y="19" width="1" height="1" fill="#EB9C7A" />
<rect x="14" y="19" width="1" height="1" fill="#745C96" />
<rect x="15" y="19" width="1" height="1" fill="#C2AD99" />
<rect x="16" y="19" width="1" height="1" fill="#C2AD99" />
<rect x="17" y="19" width="1" height="1" fill="#423E57" />
<rect x="18" y="19" width="1" height="1" fill="#423E57" />
<rect x="19" y="19" width="1" height="1" fill="#D48B70" />
<rect x="20" y="19" width="1" height="1" fill="#63423E" />
<rect x="10" y="20" width="1" height="1" fill="#423E57" />
<rect x="11" y="20" width="1" height="1" fill="#423E57" />
<rect x="12" y="20" width="1" height="1" fill="#EB9C7A" />
<rect x="13" y="20" width="1" height="1" fill="#EB9C7A" />
<rect x="14" y="20" width="1" height="1" fill="#5C5178" />
<rect x="15" y="20" width="1" height="1" fill="#5C5178" />
<rect x="16" y="20" width="1" height="1" fill="#5C5178" />
<rect x="17" y="20" width="1" height="1" fill="#423E57" />
<rect x="18" y="20" width="1" height="1" fill="#423E57" />
<rect x="19" y="20" width="1" height="1" fill="#63423E" />
<rect x="12" y="21" width="1" height="1" fill="#82544A" />
<rect x="13" y="21" width="1" height="1" fill="#82544A" />
<rect x="14" y="21" width="1" height="1" fill="#4B6275" />
<rect x="15" y="21" width="1" height="1" fill="#4B6275" />
<rect x="16" y="21" width="1" height="1" fill="#4B6275" />
<rect x="17" y="21" width="1" height="1" fill="#4B6275" />
<rect x="18" y="21" width="1" height="1" fill="#323942" />
<rect x="12" y="22" width="1" height="1" fill="#323942" />
<rect x="13" y="22" width="1" height="1" fill="#4B6275" />
<rect x="14" y="22" width="1" height="1" fill="#4B6275" />
<rect x="15" y="22" width="1" height="1" fill="#323942" />
<rect x="16" y="22" width="1" height="1" fill="#323942" />
<rect x="17" y="22" width="1" height="1" fill="#435361" />
<rect x="18" y="22" width="1" height="1" fill="#323942" />
<rect x="12" y="23" width="1" height="1" fill="#4A272E" />
<rect x="13" y="23" width="1" height="1" fill="#66343A" />
<rect x="14" y="23" width="1" height="1" fill="#783A3B" />
<rect x="15" y="23" width="1" height="1" fill="#4A272E" />
<rect x="16" y="23" width="1" height="1" fill="#4A272E" />
<rect x="17" y="23" width="1" height="1" fill="#613138" />
<rect x="18" y="23" width="1" height="1" fill="#4A272E" />
</svg>