<?xml version="1.0" encoding="UTF-8" ?>
<svg version="1.1" width="30" height="33" xmlns="http://www.w3.org/2000/svg" shape-rendering="crispEdges">
<rect x="13" y="6" width="1" height="1" fill="#7D5E5B" />
<rect x="14" y="6" width="1" height="1" fill="#7D5E5B" />
<rect x="15" y="6" width="1" height="1" fill="#7D5E5B" />
<rect x="16" y="6" width="1" height="1" fill="#7D5E5B" />
<rect x="11" y="7" width="1" height="1" fill="#7D5E5B" />
<rect x="12" y="7" width="1" height="1" fill="#7D5E5B" />
<rect x="13" y="7" width="1" height="1" fill="#E6AC9C" />
<rect x="14" y="7" width="1" height="1" fill="#E6AC9C" />
<rect x="15" y="7" width="1" height="1" fill="#E6AC9C" />
<rect x="16" y="7" width="1" height="1" fill="#E6AC9C" />
<rect x="17" y="7" width="1" height="1" fill="#7D5E5B" />
<rect x="18" y="7" width="1" height="1" fill="#7D5E5B" />
<rect x="10" y="8" width="1" height="1" fill="#7D5E5B" />
<rect x="11" y="8" width="1" height="1" fill="#E6AC9C" />
<rect x="12" y="8" width="1" height="1" fill="#E6AC9C" />
<rect x="13" y="8" width="1" height="1" fill="#E6AC9C" />
<rect x="14" y="8" width="1" height="1" fill="#E6AC9C" />
<rect x="15" y="8" width="1" height="1" fill="#E6AC9C" />
<rect x="16" y="8" width="1" height="1" fill="#E6AC9C" />
<rect x="17" y="8" width="1" height="1" fill="#E6AC9C" />
<rect x="18" y="8" width="1" height="1" fill="#E6AC9C" />
<rect x="19" y="8" width="1" height="1" fill="#7D5E5B" />
<rect x="9" y="9" width="1" height="1" fill="#7D5E5B" />
<rect x="10" y="9" width="1" height="1" fill="#E6AC9C" />
<rect x="11" y="9" width="1" height="1" fill="#E6AC9C" />
<rect x="12" y="9" width="1" height="1" fill="#E6AC9C" />
<rect x="13" y="9" width="1" height="1" fill="#E6AC9C" />
<rect x="14" y="9" width="1" height="1" fill="#E6AC9C" />
<rect x="15" y="9" width="1" height="1" fill="#E6AC9C" />
<rect x="16" y="9" width="1" height="1" fill="#E6AC9C" />
<rect x="17" y="9" width="1" height="1" fill="#E6AC9C" />
<rect x="18" y="9" width="1" height="1" fill="#E6AC9C" />
<rect x="19" y="9" width="1" height="1" fill="#E6AC9C" />
<rect x="20" y="9" width="1" height="1" fill="#7D5E5B" />
<rect x="9" y="10" width="1" height="1" fill="#7D5E5B" />
<rect x="10" y="10" width="1" height="1" fill="#E6AC9C" />
<rect x="11" y="10" width="1" height="1" fill="#E6AC9C" />
<rect x="12" y="10" width="1" height="1" fill="#E6AC9C" />
<rect x="13" y="10" width="1" height="1" fill="#E6AC9C" />
<rect x="14" y="10" width="1" height="1" fill="#E6AC9C" />
<rect x="15" y="10" width="1" height="1" fill="#E6AC9C" />
<rect x="16" y="10" width="1" height="1" fill="#E6AC9C" />
<rect x="17" y="10" width="1" height="1" fill="#E6AC9C" />
<rect x="18" y="10" width="1" height="1" fill="#E6AC9C" />
<rect x="19" y="10" width="1" height="1" fill="#E6AC9C" />
<rect x="20" y="10" width="1" height="1" fill="#7D5E5B" />
<rect x="9" y="11" width="1" height="1" fill="#7D5E5B" />
<rect x="10" y="11" width="1" height="1" fill="#E6AC9C" />
<rect x="11" y="11" width="1" height="1" fill="#E6AC9C" />
<rect x="12" y="11" width="1" height="1" fill="#E6AC9C" />
<rect x="13" y="11" width="1" height="1" fill="#E6AC9C" />
<rect x="14" y="11" width="1" height="1" fill="#E6AC9C" />
<rect x="15" y="11" width="1" height="1" fill="#E6AC9C" />
<rect x="16" y="11" width="1" height="1" fill="#E6AC9C" />
<rect x="17" y="11" width="1" height="1" fill="#E6AC9C" />
<rect x="18" y="11" width="1" height="1" fill="#E6AC9C" />
<rect x="19" y="11" width="1" height="1" fill="#E6AC9C" />
<rect x="20" y="11" width="1" height="1" fill="#7D5E5B" />
<rect x="9" y="12" width="1" height="1" fill="#7D5E5B" />
<rect x="10" y="12" width="1" height="1" fill="#E6AC9C" />
<rect x="11" y="12" width="1" height="1" fill="#E6AC9C" />
<rect x="12" y="12" width="1" height="1" fill="#E6AC9C" />
<rect x="13" y="12" width="1" height="1" fill="#E6AC9C" />
<rect x="14" y="12" width="1" height="1" fill="#E6AC9C" />
<rect x="15" y="12" width="1" height="1" fill="#E6AC9C" />
<rect x="16" y="12" width="1" height="1" fill="#E6AC9C" />
<rect x="17" y="12" width="1" height="1" fill="#E6AC9C" />
<rect x="18" y="12" width="1" height="1" fill="#E6AC9C" />
<rect x="19" y="12" width="1" height="1" fill="#E6AC9C" />
<rect x="20" y="12" width="1" height="1" fill="#7D5E5B" />
<rect x="9" y="13" width="1" height="1" fill="#7D5E5B" />
<rect x="10" y="13" width="1" height="1" fill="#E6AC9C" />
<rect x="11" y="13" width="1" height="1" fill="#E6AC9C" />
<rect x="12" y="13" width="1" height="1" fill="#E6AC9C" />
<rect x="13" y="13" width="1" height="1" fill="#E6AC9C" />
<rect x="14" y="13" width="1" height="1" fill="#576E5C" />
<rect x="15" y="13" width="1" height="1" fill="#E6AC9C" />
<rect x="16" y="13" width="1" height="1" fill="#E6AC9C" />
<rect x="17" y="13" width="1" height="1" fill="#E6AC9C" />
<rect x="18" y="13" width="1" height="1" fill="#576E5C" />
<rect x="19" y="13" width="1" height="1" fill="#E6AC9C" />
<rect x="20" y="13" width="1" height="1" fill="#7D5E5B" />
<rect x="10" y="14" width="1" height="1" fill="#7D5E5B" />
<rect x="11" y="14" width="1" height="1" fill="#E6AC9C" />
<rect x="12" y="14" width="1" height="1" fill="#E6AC9C" />
<rect x="13" y="14" width="1" height="1" fill="#E6AC9C" />
<rect x="14" y="14" width="1" height="1" fill="#576E5C" />
<rect x="15" y="14" width="1" height="1" fill="#E6AC9C" />
<rect x="16" y="14" width="1" height="1" fill="#E6AC9C" />
<rect x="17" y="14" width="1" height="1" fill="#E6AC9C" />
<rect x="18" y="14" width="1" height="1" fill="#576E5C" />
<rect x="19" y="14" width="1" height="1" fill="#BF9288" />
<rect x="20" y="14" width="1" height="1" fill="#7D5E5B" />
<rect x="10" y="15" width="1" height="1" fill="#7D5E5B" />
<rect x="11" y="15" width="1" height="1" fill="#9C989E" />
<rect x="12" y="15" width="1" height="1" fill="#A79B9B" />
<rect x="13" y="15" width="1" height="1" fill="#E6AC9C" />
<rect x="14" y="15" width="1" height="1" fill="#E6AC9C" />
<rect x="15" y="15" width="1" height="1" fill="#847E87" />
<rect x="16" y="15" width="1" height="1" fill="#847E87" />
<rect x="17" y="15" width="1" height="1" fill="#847E87" />
<rect x="18" y="15" width="1" height="1" fill="#E6AC9C" />
<rect x="19" y="15" width="1" height="1" fill="#A79B9B" />
<rect x="11" y="16" width="1" height="1" fill="#5D595C" />
<rect x="12" y="16" width="1" height="1" fill="#B5AEAE" />
<rect x="13" y="16" width="1" height="1" fill="#B5AEAE" />
<rect x="14" y="16" width="1" height="1" fill="#847E87" />
<rect x="15" y="16" width="1" height="1" fill="#E6AC9C" />
<rect x="16" y="16" width="1" height="1" fill="#E6AC9C" />
<rect x="17" y="16" width="1" height="1" fill="#847E87" />
<rect x="18" y="16" width="1" height="1" fill="#B5AEAE" />
<rect x="19" y="16" width="1" height="1" fill="#9C989E" />
<rect x="12" y="17" width="1" height="1" fill="#5D595C" />
<rect x="13" y="17" width="1" height="1" fill="#5D595C" />
<rect x="14" y="17" width="1" height="1" fill="#A79B9B" />
<rect x="15" y="17" width="1" height="1" fill="#B5AEAE" />
<rect x="16" y="17" width="1" height="1" fill="#B5AEAE" />
<rect x="17" y="17" width="1" height="1" fill="#A79B9B" />
<rect x="18" y="17" width="1" height="1" fill="#9C989E" />
<rect x="11" y="18" width="1" height="1" fill="#332E32" />
<rect x="12" y="18" width="1" height="1" fill="#4C464B" />
<rect x="13" y="18" width="1" height="1" fill="#4C464B" />
<rect x="14" y="18" width="1" height="1" fill="#5D595C" />
<rect x="15" y="18" width="1" height="1" fill="#5D595C" />
<rect x="16" y="18" width="1" height="1" fill="#5D595C" />
<rect x="17" y="18" width="1" height="1" fill="#5D595C" />
<rect x="18" y="18" width="1" height="1" fill="#332E32" />
<rect x="10" y="19" width="1" height="1" fill="#332E32" />
<rect x="11" y="19" width="1" height="1" fill="#4C464B" />
<rect x="12" y="19" width="1" height="1" fill="#4C464B" />
<rect x="13" y="19" width="1" height="1" fill="#4C464B" />
<rect x="14" y="19" width="1" height="1" fill="#4C464B" />
<rect x="15" y="19" width="1" height="1" fill="#4C464B" />
<rect x="16" y="19" width="1" height="1" fill="#4C464B" />
<rect x="17" y="19" width="1" height="1" fill="#4C464B" />
<rect x="18" y="19" width="1" height="1" fill="#332E32" />
<rect x="19" y="19" width="1" height="1" fill="#634D4C" />
<rect x="10" y="20" width="1" height="1" fill="#332E32" />
<rect x="11" y="20" width="1" height="1" fill="#4C464B" />
<rect x="12" y="20" width="1" height="1" fill="#4C464B" />
<rect x="13" y="20" width="1" height="1" fill="#383338" />
<rect x="14" y="20" width="1" height="1" fill="#FCF7BE" />
<rect x="15" y="20" width="1" height="1" fill="#FCF7BE" />
<rect x="16" y="20" width="1" height="1" fill="#FCF7BE" />
<rect x="17" y="20" width="1" height="1" fill="#FCF7BE" />
<rect x="18" y="20" width="1" height="1" fill="#332E32" />
<rect x="19" y="20" width="1" height="1" fill="#BF9288" />
<rect x="20" y="20" width="1" height="1" fill="#634D4C" />
<rect x="10" y="21" width="1" height="1" fill="#332E32" />
<rect x="11" y="21" width="1" height="1" fill="#4C464B" />
<rect x="12" y="21" width="1" height="1" fill="#E6AC9C" />
<rect x="13" y="21" width="1" height="1" fill="#E6AC9C" />
<rect x="14" y="21" width="1" height="1" fill="#7D5E5B" />
<rect x="15" y="21" width="1" height="1" fill="#4C464B" />
<rect x="16" y="21" width="1" height="1" fill="#4C464B" />
<rect x="17" y="21" width="1" height="1" fill="#4C464B" />
<rect x="18" y="21" width="1" height="1" fill="#332E32" />
<rect x="19" y="21" width="1" height="1" fill="#BF9288" />
<rect x="20" y="21" width="1" height="1" fill="#634D4C" />
<rect x="11" y="22" width="1" height="1" fill="#332E32" />
<rect x="12" y="22" width="1" height="1" fill="#E6AC9C" />
<rect x="13" y="22" width="1" height="1" fill="#E6AC9C" />
<rect x="14" y="22" width="1" height="1" fill="#7D5E5B" />
<rect x="15" y="22" width="1" height="1" fill="#413B40" />
<rect x="16" y="22" width="1" height="1" fill="#413B40" />
<rect x="17" y="22" width="1" height="1" fill="#413B40" />
<rect x="18" y="22" width="1" height="1" fill="#332E32" />
<rect x="19" y="22" width="1" height="1" fill="#634D4C" />
<rect x="12" y="23" width="1" height="1" fill="#7D5E5B" />
<rect x="13" y="23" width="1" height="1" fill="#7D5E5B" />
<rect x="14" y="23" width="1" height="1" fill="#4B6275" />
<rect x="15" y="23" width="1" height="1" fill="#4B6275" />
<rect x="16" y="23" width="1" height="1" fill="#4B6275" />
<rect x="17" y="23" width="1" height="1" fill="#4B6275" />
<rect x="18" y="23" width="1" height="1" fill="#323942" />
<rect x="12" y="24" width="1" height="1" fill="#323942" />
<rect x="13" y="24" width="1" height="1" fill="#4B6275" />
<rect x="14" y="24" width="1" height="1" fill="#4B6275" />
<rect x="15" y="24" width="1" height="1" fill="#323942" />
<rect x="16" y="24" width="1" height="1" fill="#323942" />
<rect x="17" y="24" width="1" height="1" fill="#435361" />
<rect x="18" y="24" width="1" height="1" fill="#323942" />
<rect x="12" y="25" width="1" height="1" fill="#1C1C1F" />
<rect x="13" y="25" width="1" height="1" fill="#28282B" />
<rect x="14" y="25" width="1" height="1" fill="#1C1C1F" />
<rect x="15" y="25" width="1" height="1" fill="#1C1C1F" />
<rect x="16" y="25" width="1" height="1" fill="#393940" />
<rect x="17" y="25" width="1" height="1" fill="#2C2C30" />
<rect x="18" y="25" width="1" height="1" fill="#1C1C1F" />
</svg>